HIERARCHY
ROOT hip
{
	OFFSET	0.00  0.00  0.00 
	CHANNELS 6 Xposition Yposition Zposition Xrotation Zrotation Yrotation
	JOINT waist
	{
		OFFSET	0.000000 2.191865 -0.079388
		CHANNELS 3 Xrotation Zrotation Yrotation
		JOINT abdomen
		{
			OFFSET	0.000000 2.770984 0.119082
			CHANNELS 3 Xrotation Zrotation Yrotation
			JOINT chest
			{
				OFFSET	0.000000 2.879627 -0.290598
				CHANNELS 3 Xrotation Zrotation Yrotation
				JOINT neck
				{
					OFFSET	0.000000 12.342733 -1.613748
					CHANNELS 3 Xrotation Zrotation Yrotation
					JOINT head
					{
						OFFSET	0.000000 4.485597 1.807195
						CHANNELS 3 Xrotation Zrotation Yrotation
						End Site
						{
							OFFSET 0.000000 7.191734 2.024398
						}
					}
				}
				JOINT lCollar
				{
					OFFSET	1.858774 10.237258 -1.915852
					CHANNELS 3 Zrotation Yrotation Xrotation
					JOINT lShldr
					{
						OFFSET	6.103279 0.000102 -0.038601
						CHANNELS 3 Zrotation Yrotation Xrotation
						JOINT lForeArm
						{
							OFFSET	10.574100 -0.365985 -0.655940
							CHANNELS 3 Zrotation Yrotation Xrotation
							JOINT lHand
							{
								OFFSET	13.213392 -0.641131 0.276866
								CHANNELS 3 Zrotation Yrotation Xrotation
								JOINT lThumb1
								{
									OFFSET	1.920964 -1.225712 1.722395
									CHANNELS 3 Zrotation Yrotation Xrotation
									JOINT lThumb2
									{
										OFFSET	0.248544 -0.143036 0.768265
										CHANNELS 3 Zrotation Yrotation Xrotation
										JOINT lThumb3
										{
											OFFSET	0.628484 -0.225174 0.508305
											CHANNELS 3 Zrotation Yrotation Xrotation
											End Site
											{
												OFFSET 0.831712 -0.207978 0.609962
											}
										}
									}
								}
								JOINT lIndex1
								{
									OFFSET	5.093442 -0.710319 1.829884
									CHANNELS 3 Zrotation Yrotation Xrotation
									JOINT lIndex2
									{
										OFFSET	0.889470 -0.051998 0.127073
										CHANNELS 3 Zrotation Yrotation Xrotation
										JOINT lIndex3
										{
											OFFSET	0.889570 -0.155981 0.127073
											CHANNELS 3 Zrotation Yrotation Xrotation
											End Site
											{
												OFFSET 0.797115 -0.294470 0.076252
											}
										}
									}
								}
								JOINT lMid1
								{
									OFFSET	5.154641 -0.519844 0.864111
									CHANNELS 3 Zrotation Yrotation Xrotation
									JOINT lMid2
									{
										OFFSET	0.928821 -0.051992 0.050831
										CHANNELS 3 Zrotation Yrotation Xrotation
										JOINT lMid3
										{
											OFFSET	0.984253 -0.311865 0.050831
											CHANNELS 3 Zrotation Yrotation Xrotation
											End Site
											{
												OFFSET 0.779717 -0.606438 -0.050831
											}
										}
									}
								}
								JOINT lRing1
								{
									OFFSET	4.924408 -0.754930 -0.235503
									CHANNELS 3 Zrotation Yrotation Xrotation
									JOINT lRing2
									{
										OFFSET	0.981624 -0.036924 -0.108278
										CHANNELS 3 Zrotation Yrotation Xrotation
										JOINT lRing3
										{
											OFFSET	0.805613 -0.205247 -0.041717
											CHANNELS 3 Zrotation Yrotation Xrotation
											End Site
											{
												OFFSET 0.667431 -0.470481 -0.035991
											}
										}
									}
								}
								JOINT lPinky1
								{
									OFFSET	4.535460 -0.816635 -1.006206
									CHANNELS 3 Zrotation Yrotation Xrotation
									JOINT lPinky2
									{
										OFFSET	0.690596 -0.064334 -0.168800
										CHANNELS 3 Zrotation Yrotation Xrotation
										JOINT lPinky3
										{
											OFFSET	0.598039 -0.111176 -0.071973
											CHANNELS 3 Zrotation Yrotation Xrotation
											End Site
											{
												OFFSET 0.422025 -0.290925 -0.035981
											}
										}
									}
								}
							}
						}
					}
				}
				JOINT rCollar
				{
					OFFSET	-1.858774 10.237258 -1.915852
					CHANNELS 3 Zrotation Yrotation Xrotation
					JOINT rShldr
					{
						OFFSET	-6.103279 0.000102 -0.038601
						CHANNELS 3 Zrotation Yrotation Xrotation
						JOINT rForeArm
						{
							OFFSET	-10.574100 -0.365985 -0.655940
							CHANNELS 3 Zrotation Yrotation Xrotation
							JOINT rHand
							{
								OFFSET	-13.213392 -0.641131 0.276866
								CHANNELS 3 Zrotation Yrotation Xrotation
								JOINT rIndex1
								{
									OFFSET	-5.093442 -0.710319 1.829884
									CHANNELS 3 Zrotation Yrotation Xrotation
									JOINT rIndex2
									{
										OFFSET	-0.889470 -0.051998 0.127073
										CHANNELS 3 Zrotation Yrotation Xrotation
										JOINT rIndex3
										{
											OFFSET	-0.889570 -0.155981 0.127073
											CHANNELS 3 Zrotation Yrotation Xrotation
											End Site
											{
												OFFSET -0.797115 -0.294470 0.076252
											}
										}
									}
								}
								JOINT rThumb1
								{
									OFFSET	-1.920964 -1.225712 1.722395
									CHANNELS 3 Zrotation Yrotation Xrotation
									JOINT rThumb2
									{
										OFFSET	-0.248544 -0.143036 0.768265
										CHANNELS 3 Zrotation Yrotation Xrotation
										JOINT rThumb3
										{
											OFFSET	-0.628484 -0.225174 0.508305
											CHANNELS 3 Zrotation Yrotation Xrotation
											End Site
											{
												OFFSET -0.831712 -0.207978 0.609962
											}
										}
									}
								}
								JOINT rMid1
								{
									OFFSET	-5.154641 -0.519844 0.864111
									CHANNELS 3 Zrotation Yrotation Xrotation
									JOINT rMid2
									{
										OFFSET	-0.928821 -0.051992 0.050831
										CHANNELS 3 Zrotation Yrotation Xrotation
										JOINT rMid3
										{
											OFFSET	-0.984253 -0.311865 0.050831
											CHANNELS 3 Zrotation Yrotation Xrotation
											End Site
											{
												OFFSET -0.779717 -0.606438 -0.050831
											}
										}
									}
								}
								JOINT rRing1
								{
									OFFSET	-4.924408 -0.754930 -0.235503
									CHANNELS 3 Zrotation Yrotation Xrotation
									JOINT rRing2
									{
										OFFSET	-0.981624 -0.036924 -0.108278
										CHANNELS 3 Zrotation Yrotation Xrotation
										JOINT rRing3
										{
											OFFSET	-0.805613 -0.205247 -0.041717
											CHANNELS 3 Zrotation Yrotation Xrotation
											End Site
											{
												OFFSET -0.667431 -0.470481 -0.035991
											}
										}
									}
								}
								JOINT rPinky1
								{
									OFFSET	-4.535460 -0.816635 -1.006206
									CHANNELS 3 Zrotation Yrotation Xrotation
									JOINT rPinky2
									{
										OFFSET	-0.690596 -0.064334 -0.168800
										CHANNELS 3 Zrotation Yrotation Xrotation
										JOINT rPinky3
										{
											OFFSET	-0.598039 -0.111176 -0.071973
											CHANNELS 3 Zrotation Yrotation Xrotation
											End Site
											{
												OFFSET -0.422025 -0.290925 -0.035981
											}
										}
									}
								}
							}
						}
					}
				}
			}
		}
	}
	JOINT lThigh
	{
		OFFSET	5.761895 -0.730553 0.000101
		CHANNELS 3 Xrotation Zrotation Yrotation
		JOINT lShin
		{
			OFFSET	-1.171020 -18.459274 1.627449
			CHANNELS 3 Xrotation Zrotation Yrotation
			JOINT lFoot
			{
				OFFSET	-0.883715 -16.872776 -3.357785
				CHANNELS 3 Xrotation Zrotation Yrotation
				JOINT lToe
				{
					OFFSET	1.287613 -2.778491 2.836049
					CHANNELS 3 Xrotation Yrotation Zrotation
					End Site
					{
						OFFSET 1.362641 -0.436631 3.828194
					}
				}
			}
		}
	}
	JOINT rThigh
	{
		OFFSET	-5.761895 -0.730553 0.000101
		CHANNELS 3 Xrotation Zrotation Yrotation
		JOINT rShin
		{
			OFFSET	1.171020 -18.459274 1.627449
			CHANNELS 3 Xrotation Zrotation Yrotation
			JOINT rFoot
			{
				OFFSET	0.883715 -16.872776 -3.357785
				CHANNELS 3 Xrotation Zrotation Yrotation
				JOINT rToe
				{
					OFFSET	-1.287613 -2.778491 2.836049
					CHANNELS 3 Xrotation Yrotation Zrotation
					End Site
					{
						OFFSET -1.362641 -0.436631 3.828194
					}
				}
			}
		}
	}
}
MOTION
Frames:     5
Frame Time: 0.033333
-4.522264 39.368458 50.029732 9.596741 0.879915 -18.190699 -5.868764 5.005170 -0.213985 -4.218748 -0.038403 -0.007157 -1.611304 -0.791861 4.810709 -0.557582 -12.029271 1.327639 -3.387343 5.146589 -7.609133 -0.380500 1.914991 2.975653 -46.714554 -39.156506 18.106886 -8.969381 -15.809635 33.506893 -3.115420 -5.741069 -2.801485 -0.018104 -0.003944 -0.010280 -0.015681 -0.006574 -0.010607 -0.015424 -0.007546 -0.010088 -5.617136 -9.577498 0.226612 5.863850 -2.482647 -1.279733 5.733259 -4.213939 -2.112983 -3.276901 -3.549050 -0.029155 6.950856 1.352897 0.055692 17.335938 -7.491372 -4.728842 -8.532050 0.937793 -0.780460 10.993418 5.598155 1.987763 23.416618 -1.557235 0.198501 -12.495728 -4.048702 -3.814710 4.093336 13.079714 2.906899 29.011728 -4.432513 -0.503557 -3.904892 7.373100 1.501602 83.423599 -8.726206 4.126668 -5.159755 31.619402 25.769199 0.781714 0.688926 -2.275024 6.513788 9.158297 0.378424 -5.668422 2.401656 -1.234168 -5.638040 3.850102 -1.967154 -0.001427 -0.010679 0.002670 -0.003851 -0.011809 -0.004022 -0.004104 -0.011405 -0.005351 3.315912 3.402688 -0.018355 -7.141896 -1.922647 0.228803 -17.135929 7.240829 -4.540023 7.446023 -1.342469 -0.681594 -11.251382 -5.697522 2.028208 -23.301912 1.707741 0.089391 11.290476 3.069942 -3.312936 -4.604740 -13.146440 2.978915 -0.010453 -0.013569 -0.002478 -22.553217 -0.034027 6.862580 20.583410 9.417880 5.184878 0.861590 1.702727 -11.015305 7.321424 3.927597 -2.099804 -39.763878 1.678031 -11.496703 16.693607 -3.502492 -35.431313 -19.701084 1.622786 -58.794048 6.630941 -5.672726 1.638374 
-4.496853 38.927513 51.544708 9.166032 1.650268 -21.567091 -5.800701 5.083223 -0.217313 -4.218748 -0.038403 -0.007157 -2.756149 -0.969097 7.994780 1.500270 -13.278413 0.850672 -4.262450 4.705010 -8.536197 -1.035731 2.373867 3.078503 -48.995468 -40.288094 21.715908 -7.884557 -13.671939 38.461998 -2.622382 -8.716124 -3.194164 -0.018104 -0.003944 -0.010280 -0.015681 -0.006574 -0.010607 -0.015424 -0.007546 -0.010088 -5.627037 -9.577404 0.227985 5.863850 -2.482647 -1.279733 5.723288 -4.205019 -2.108758 -3.276901 -3.549050 -0.029155 6.950939 1.362208 0.058636 17.335938 -7.491372 -4.728842 -8.502965 0.947955 -0.777804 11.003216 5.598001 1.988231 23.416729 -1.565221 0.192882 -12.469405 -4.028479 -3.804886 4.103298 13.079526 2.908021 29.002310 -4.440043 -0.509577 -3.621696 7.324197 1.538877 82.570648 -12.316212 2.619976 -4.409401 36.026665 24.953993 0.116615 0.008759 -2.221644 6.543349 9.148199 0.383099 -5.668422 2.401656 -1.234168 -5.628098 3.841180 -1.962931 -0.001427 -0.010679 0.002670 -0.003851 -0.011809 -0.004022 -0.004104 -0.011405 -0.005351 3.306118 3.392952 -0.018343 -7.151859 -1.941401 0.234229 -17.125444 7.232841 -4.534461 7.397526 -1.362577 -0.677159 -11.251382 -5.697522 2.028208 -23.302034 1.715726 0.083771 11.237274 3.029760 -3.293204 -4.615111 -13.155839 2.981808 -0.010453 -0.013569 -0.002478 -21.554895 -0.919541 6.891336 23.574556 9.150342 9.825470 2.476565 2.827140 -10.390877 7.363971 4.013899 -2.104228 -40.761265 3.001532 -11.376619 19.223143 -3.502097 -35.623878 -19.110943 1.062954 -61.667488 6.631860 -5.692125 1.636291 
-4.745263 38.449921 53.100754 8.858400 1.951411 -25.000555 -5.722837 5.151519 -0.221102 -4.218748 -0.038403 -0.007157 -3.158206 -0.273599 8.282168 1.415991 -12.588846 -1.817947 -4.349877 3.093543 -10.136144 -0.126344 1.827135 2.947942 -53.660011 -37.399715 23.350452 -7.945812 -15.440057 37.267654 -2.471224 -7.494833 -3.048405 -0.018104 -0.003944 -0.010280 -0.015681 -0.006574 -0.010607 -0.015424 -0.007546 -0.010088 -5.636855 -9.567559 0.229922 5.854123 -2.482904 -1.278389 5.723104 -4.195855 -2.105386 -3.267106 -3.539313 -0.029144 6.951025 1.371519 0.061581 17.325439 -7.483387 -4.723277 -8.474013 0.967881 -0.775146 11.003216 5.598001 1.988231 23.406986 -1.564926 0.192542 -12.443074 -4.008257 -3.794377 4.113259 13.079342 2.909142 28.992899 -4.447572 -0.515598 -3.181558 6.259619 1.740867 80.407700 -11.302820 -0.662710 -4.635483 36.096451 24.990435 0.194896 0.096209 -2.228853 6.572799 9.128350 0.388337 -5.658695 2.401908 -1.232824 -5.618001 3.823093 -1.955337 -0.001427 -0.010679 0.002670 -0.003851 -0.011809 -0.004022 -0.004104 -0.011405 -0.005351 3.296323 3.383216 -0.018331 -7.152087 -1.960022 0.240119 -17.114960 7.224853 -4.528898 7.349024 -1.382680 -0.672722 -11.261183 -5.697366 2.028677 -23.292416 1.723416 0.077809 11.184052 2.989589 -3.272954 -4.635035 -13.155444 2.984050 -0.010453 -0.013569 -0.002478 -21.509233 -0.945995 7.728808 28.273314 8.881079 13.945141 5.283399 5.258586 -9.296660 7.407081 4.109888 -2.106936 -41.269005 4.774934 -11.112533 21.853470 -3.921797 -33.598820 -17.457512 -0.377958 -61.761532 6.633237 -5.721223 1.633166 
-5.289591 37.999210 54.568680 8.946819 1.509973 -28.514811 -5.654783 5.229572 -0.224443 -4.218748 -0.038403 -0.007157 -2.388333 1.662481 4.836425 -0.156148 -10.836277 -6.620889 -5.760211 2.300525 -13.337774 1.360058 0.401378 2.684103 -58.475651 -30.815617 22.752460 -9.007868 -20.711905 30.931450 -2.168395 -3.171806 -2.527898 -0.018104 -0.003944 -0.010280 -0.015681 -0.006574 -0.010607 -0.015424 -0.007546 -0.010088 -5.646673 -9.557716 0.231858 5.854123 -2.482904 -1.278389 5.713320 -4.196098 -2.104533 -3.257323 -3.539327 -0.029678 6.951110 1.380829 0.064525 17.325439 -7.483387 -4.723277 -8.454665 0.977909 -0.773375 11.003216 5.598001 1.988231 23.407089 -1.572913 0.186923 -12.417550 -3.978419 -3.783073 4.113259 13.079342 2.909142 28.983482 -4.455101 -0.521619 -3.356299 4.120935 1.965886 77.203629 -2.851163 -3.514237 -5.736917 30.050076 26.146530 1.319355 1.145590 -2.306704 6.602356 9.118249 0.393012 -5.648971 2.402158 -1.231481 -5.617846 3.813930 -1.951966 -0.001427 -0.010679 0.002670 -0.003851 -0.011809 -0.004022 -0.004104 -0.011405 -0.005351 3.296312 3.373466 -0.017787 -7.162166 -1.988085 0.248489 -17.104485 7.216866 -4.523336 7.300523 -1.402780 -0.668286 -11.271257 -5.706669 2.031553 -23.292416 1.723416 0.077809 11.131534 2.939805 -3.251737 -4.655368 -13.164645 2.988063 -0.010453 -0.013569 -0.002478 -23.022829 0.427113 9.470047 34.908192 8.875328 15.937308 10.242282 9.494453 -8.861971 7.449682 4.196169 -2.110682 -41.202839 6.896461 -10.841011 24.345102 -4.300817 -31.324738 -14.638248 -1.180263 -61.327084 6.644145 -5.750121 1.633335 
-6.016365 37.589661 55.851322 9.190485 0.130987 -32.795139 -5.586694 5.297868 -0.227366 -4.218748 -0.038403 -0.007157 -0.132154 4.917478 -1.464699 -0.032549 -8.070534 -13.855337 -10.645914 3.675658 -18.749071 2.592430 -1.493353 2.360274 -62.475990 -22.500486 21.074329 -10.043236 -26.278582 23.982719 -0.894313 0.678262 -2.111671 -0.018104 -0.003944 -0.010280 -0.015681 -0.006574 -0.010607 -0.015424 -0.007546 -0.010088 -5.656489 -9.547873 0.233794 5.844393 -2.483160 -1.277045 5.713139 -4.186935 -2.101161 -3.257313 -3.529577 -0.029134 6.951281 1.399451 0.070414 17.314930 -7.475400 -4.717711 -8.425579 0.988067 -0.770718 11.013286 5.607309 1.991106 23.407089 -1.572913 0.186923 -12.391208 -3.958202 -3.773246 4.123615 13.088751 2.912036 28.973780 -4.454585 -0.522112 -2.964222 1.737978 2.294662 73.551888 10.866469 -4.752489 -6.508151 23.127735 27.389454 2.638765 2.106922 -2.364899 6.631910 9.108143 0.397687 -5.639158 2.392788 -1.228468 -5.607753 3.795843 -1.944371 -0.001427 -0.010679 0.002670 -0.003851 -0.011809 -0.004022 -0.004104 -0.011405 -0.005351 3.286530 3.373480 -0.018319 -7.162401 -2.006705 0.254379 -17.093996 7.208879 -4.517776 7.252016 -1.422876 -0.663848 -11.281060 -5.706513 2.032021 -23.282791 1.731104 0.071848 11.087623 2.899933 -3.233800 -4.675294 -13.164248 2.990305 -0.010453 -0.013569 -0.002478 -25.589121 3.321829 11.538113 42.871437 9.128025 14.637241 17.752710 15.869198 -10.607358 7.492307 4.282438 -2.115152 -40.440594 9.362862 -10.710542 26.695763 -4.285395 -29.191814 -11.095343 -1.038899 -61.674595 6.645063 -5.769518 1.631251 
